<svg xmlns="http://www.w3.org/2000/svg" xmlns:xlink="http://www.w3.org/1999/xlink" enable-background="new 0 0 20 20" viewBox="0 0 20 20"><defs><linearGradient id="a"><stop offset="0" stop-color="#000092"/><stop offset="1" stop-color="#ff00f3"/></linearGradient><linearGradient id="b" x1="1.464" x2="17" y1="10.025" y2="10.025" gradientUnits="userSpaceOnUse" xlink:href="#a"/></defs><path fill="url(#b)" d="M 15.300781 1.5136719 C 14.918199 1.5136719 14.534482 1.6588773 14.246094 1.9472656 L 13.875 2.3203125 A 0.50005 0.50005 0 0 0 13.832031 2.3613281 L 13.646484 2.546875 A 0.50005 0.50005 0 0 0 13.558594 2.6582031 L 12.730469 3.5625 A 0.50005 0.50005 0 0 0 12.714844 3.5820312 L 10.001953 6.2949219 L 5.5527344 1.8457031 C 5.364346 1.6573148 5.1071919 1.5644531 4.8496094 1.5644531 C 4.5920269 1.5644531 4.3348727 1.6573151 4.1464844 1.8457031 L 1.7460938 4.2460938 C 1.3693171 4.6228704 1.3693171 5.2775202 1.7460938 5.6542969 L 1.7480469 5.65625 L 6.2402344 10.054688 L 3.4785156 12.816406 A 0.50005 0.50005 0 0 0 3.125 13.144531 L 1.625 17.744141 A 0.50005 0.50005 0 0 0 2.2558594 18.375 L 6.8554688 16.875 A 0.50005 0.50005 0 0 0 7.109375 16.683594 L 9.9902344 13.802734 L 14.34375 18.251953 L 14.345703 18.253906 C 14.72248 18.630683 15.37713 18.630683 15.753906 18.253906 L 18.154297 15.853516 C 18.531074 15.476739 18.531074 14.824042 18.154297 14.447266 L 13.75 10.042969 L 16.611328 7.1816406 A 0.50005 0.50005 0 0 0 16.724609 7.0058594 L 17.341797 6.4394531 A 0.50005 0.50005 0 0 0 17.34375 6.4375 A 0.50005 0.50005 0 0 0 17.453125 6.3535156 L 17.638672 6.1679688 A 0.50005 0.50005 0 0 0 17.685547 6.1210938 L 18.052734 5.7539062 C 18.629511 5.1771297 18.629511 4.2232611 18.052734 3.6464844 L 16.353516 1.9472656 C 16.065127 1.6588773 15.683364 1.5136719 15.300781 1.5136719 z M 15.298828 2.4863281 C 15.416362 2.4863281 15.534873 2.5426852 15.646484 2.6542969 L 17.345703 4.3535156 C 17.568926 4.5767389 17.568926 4.8236517 17.345703 5.046875 L 16.96875 5.4257812 A 0.50005 0.50005 0 0 0 16.962891 5.4316406 L 16.939453 5.453125 L 16.234375 6.0976562 L 13.902344 3.765625 L 14.568359 3.0371094 L 14.953125 2.6542969 C 15.064737 2.5426852 15.181294 2.4863281 15.298828 2.4863281 z M 4.8496094 2.5566406 L 9.2949219 7.0019531 L 6.9492188 9.3476562 L 6.2167969 8.6289062 L 7.9277344 6.9179688 L 6.9375 5.9277344 L 5.2148438 7.6503906 L 4.1855469 6.640625 L 4.8789062 5.9472656 L 3.8886719 4.9589844 L 3.1855469 5.6621094 L 2.4570312 4.9492188 L 4.8496094 2.5566406 z M 13.101562 4.609375 L 13.726562 5.234375 L 5.0039062 13.957031 L 4.3789062 13.332031 L 13.101562 4.609375 z M 14.716797 6.2246094 L 15.435547 6.9433594 L 6.7128906 15.666016 L 5.9941406 14.947266 L 14.716797 6.2246094 z M 13.042969 10.75 L 17.443359 15.150391 L 15.050781 17.542969 L 14.419922 16.900391 L 16.107422 15.212891 L 15.117188 14.222656 L 13.441406 15.900391 L 12.363281 14.798828 L 13.060547 14.101562 L 12.070312 13.111328 L 11.384766 13.796875 L 10.697266 13.095703 L 13.042969 10.75 z M 3.8222656 14.230469 L 5.7695312 16.177734 L 3.2109375 17.011719 L 2.9882812 16.789062 L 3.8222656 14.230469 z " color="#000" font-family="sans-serif" font-weight="400" overflow="visible" style="line-height:normal;text-indent:0;text-align:start;text-decoration-line:none;text-decoration-style:solid;text-decoration-color:#000;text-transform:none;block-progression:tb;isolation:auto;mix-blend-mode:normal"/></svg>